    <svg xmlns="http://www.w3.org/2000/svg" version="1.1" id="图层_1" x="0px" y="0px" viewBox="0 0 595.28 841.89" style="enable-background:new 0 0 595.28 841.89;" xml:space="preserve">
        <style>
            .st0{fill:#C3D4D4;}
            .st1{fill:#CDDEE0;}
            .st2{fill:#6B8BA4;}
            .st3{fill:#FFFFFF;}
            .st4{fill:#E9EAEA;}
            .st5{fill:#DDEEF1;}
            .st6{fill:#DAECEE;}
            .st7{fill:#FF8200;}
        </style>
        <g>
		<path class="st0" d="M500.81,819.38H94.46c-8.67,0-15.7-7.03-15.7-15.7V16.44c0-6.47,5.25-11.72,11.72-11.72h414.31       c6.47,0,11.72,5.25,11.72,11.72v787.25C516.51,812.35,509.48,819.38,500.81,819.38z"/>
            <path class="st1" d="M422.31,824.22H173.06c-8.07,0-14.59-6.41-15.05-14.52c-3.08-54.31-24.04-72.28-53.42-86.12       c-5.25-2.48-8.6-7.82-8.6-13.66V56.37c0-17.15,13.82-31.05,30.86-31.05h341.56c17.04,0,30.86,13.9,30.86,31.05v653.52       c0,5.8-3.31,11.07-8.5,13.59c-32.32,15.68-50.45,42.1-53.46,86.89C436.79,818.21,430.13,824.22,422.31,824.22z"/>
            <path class="st2" d="M470.63,506.55H125.2c-2.24,0-4.05-1.81-4.05-4.05V50.81c0-2.24,1.81-4.05,4.05-4.05h345.43       c2.24,0,4.05,1.81,4.05,4.05V502.5C474.68,504.73,472.87,506.55,470.63,506.55z"/>
            <rect x="172.34" y="229.02" class="st3" width="239.46" height="165.49"/>
            <g>
			<g>
				<rect x="192.08" y="257.82" class="st4" width="136.66" height="17.55"/>
                <rect x="192.08" y="302.99" class="st4" width="136.66" height="17.55"/>
                <rect x="192.08" y="348.16" class="st4" width="136.66" height="17.55"/>
			</g>
                <rect x="342.91" y="257.82" class="st4" width="49.15" height="62.72"/>
		</g>
            <circle class="st5" cx="285.84" cy="127.73" r="31.04"/>
            <path class="st6" d="M377.99,533.68h-160.7c-15.86,0-28.72,12.86-28.72,28.72v268.1c0,6.83,5.54,12.37,12.37,12.37h193.42       c6.83,0,12.37-5.54,12.37-12.37V562.4C406.71,546.54,393.85,533.68,377.99,533.68z"/>
            <rect class="st7" x="239.33" y="624.56" width="116.62" height="199.66"/>
	</g>

</svg>